<svg width="17" height="20" viewBox="0 0 17 20" fill="none" xmlns="http://www.w3.org/2000/svg">
<path d="M7.38488 0.405506C5.25079 0.777822 3.48901 2.53576 3.13589 4.63915L3.08599 4.93469L1.78097 4.95389C0.498978 4.97308 0.475949 4.97308 0.333932 5.06136C0.257166 5.11126 0.149693 5.22641 0.0959574 5.31469L0 5.47973V12.4769V19.4742L0.0959574 19.6392C0.153532 19.739 0.261004 19.8465 0.3608 19.904L0.525846 20H5.22008H9.91431L10.0794 19.904C10.3212 19.762 10.4402 19.5394 10.4402 19.2323C10.4402 18.9253 10.3212 18.7027 10.0794 18.5606L9.91431 18.4647H5.72674H1.53532V12.4769V6.4892H2.30298H3.07064V7.76352V9.03399L3.16659 9.19904C3.30861 9.44085 3.53123 9.55984 3.83829 9.55984C4.14536 9.55984 4.36798 9.44085 4.51 9.19904L4.60595 9.03399V7.76352V6.4892H8.29072H11.9755V7.76352V9.03399L12.0714 9.19904C12.2135 9.44085 12.4361 9.55984 12.7431 9.55984C13.0502 9.55984 13.2728 9.44085 13.4148 9.19904L13.5108 9.03399V7.76352V6.4892H14.2785H15.0461V9.91296V13.3329L15.1421 13.4979C15.2841 13.7397 15.5067 13.8587 15.8138 13.8587C16.1208 13.8587 16.3435 13.7397 16.4855 13.4979L16.5814 13.3329V9.40631V5.47973L16.4855 5.31469C16.4317 5.22641 16.3243 5.11126 16.2475 5.06136C16.1055 4.97308 16.0825 4.97308 14.8005 4.95389L13.4954 4.93469L13.4455 4.63915C13.3419 4.0135 13.0195 3.21514 12.6549 2.6701C11.8872 1.53013 10.7395 0.747116 9.38463 0.440052C9.00464 0.35561 7.79558 0.332579 7.38488 0.405506ZM9.17352 2.02143C10.4286 2.34001 11.4458 3.31493 11.7989 4.54703C11.8527 4.73127 11.8987 4.90015 11.8987 4.91934C11.8987 4.93853 10.3672 4.95389 8.29072 4.95389C6.2142 4.95389 4.68272 4.93853 4.68272 4.91934C4.68272 4.78884 4.90918 4.15168 5.04736 3.89068C5.8534 2.37071 7.53457 1.61073 9.17352 2.02143Z" fill="white"/>
<path d="M13.8679 15.4938C13.7757 15.5476 13.6606 15.6627 13.6069 15.7548C13.5186 15.9084 13.5109 15.9544 13.5109 16.4227V16.9294H13.0042C12.536 16.9294 12.4899 16.937 12.3364 17.0253C12.0946 17.1673 11.9756 17.39 11.9756 17.697C11.9756 18.0041 12.0946 18.2267 12.3364 18.3687C12.4899 18.457 12.536 18.4647 13.0042 18.4647H13.5109V18.9713C13.5109 19.4396 13.5186 19.4857 13.6069 19.6392C13.7489 19.881 13.9715 20 14.2786 20C14.5856 20 14.8082 19.881 14.9503 19.6392C15.0385 19.4857 15.0462 19.4396 15.0462 18.9713V18.4647H15.5529C16.0211 18.4647 16.0672 18.457 16.2207 18.3687C16.4626 18.2267 16.5815 18.0041 16.5815 17.697C16.5815 17.39 16.4626 17.1673 16.2207 17.0253C16.0672 16.937 16.0211 16.9294 15.5529 16.9294H15.0462V16.4227C15.0462 15.9544 15.0385 15.9084 14.9503 15.7548C14.8082 15.513 14.5856 15.394 14.2747 15.394C14.079 15.394 13.9945 15.4132 13.8679 15.4938Z" fill="white"/>
</svg>
