<svg width="23" height="24" viewBox="0 0 23 24" fill="none" xmlns="http://www.w3.org/2000/svg">
<path fill-rule="evenodd" clip-rule="evenodd" d="M10.6833 0.0221871C9.28 0.231864 8.03498 0.850647 7.09547 1.8053C6.01231 2.90592 5.51988 4.17257 5.51366 5.87408L5.51094 6.61365L3.04142 6.61394C0.723653 6.61415 0.556504 6.62288 0.321219 6.75601C0.183315 6.834 0.0508557 6.97182 0.0268217 7.06237C0.00278766 7.15292 -0.00693488 10.279 0.00527658 14.0093L0.0274442 20.7917L0.241572 21.2879C0.671852 22.2849 1.43316 23.0632 2.43863 23.534C3.4542 24.0094 3.27149 24 11.5 24C19.7208 24 19.5367 24.0094 20.5614 23.5368C21.5526 23.0797 22.3275 22.2865 22.7584 21.2879L22.9726 20.7917L22.9947 14.0093C23.0069 10.279 22.9972 7.15292 22.9732 7.06237C22.9491 6.97182 22.8167 6.834 22.6788 6.75601C22.4435 6.62288 22.2763 6.61415 19.9586 6.61394L17.4891 6.61365V5.92401C17.4891 5.07196 17.3767 4.37554 17.1309 3.70531C16.5101 2.01217 14.9138 0.637579 13.0139 0.160215C12.5457 0.0425338 11.1144 -0.0421734 10.6833 0.0221871ZM12.6245 1.60125C13.7709 1.87825 14.9076 2.74632 15.4087 3.72753C15.7645 4.42431 15.8557 4.85175 15.8557 5.8235V6.61365H11.5H7.14432V5.8235C7.14432 4.85175 7.23548 4.42431 7.59132 3.72753C8.08429 2.76212 9.2219 1.88431 10.342 1.60486C10.9012 1.46532 12.0546 1.46351 12.6245 1.60125ZM5.51094 9.10653C5.51094 10.4059 5.64503 10.6542 6.34676 10.6542C6.67795 10.6542 6.94761 10.4753 7.07128 10.1736C7.11149 10.0756 7.14432 9.57546 7.14432 9.06216V8.12886H11.5H15.8557V9.0561C15.8557 9.56608 15.8933 10.0834 15.9393 10.2058C16.0455 10.4886 16.3173 10.6542 16.6748 10.6542C17.3528 10.6542 17.4891 10.3952 17.4891 9.10653V8.12886H19.4725H21.4558V14.1461C21.4558 19.9672 21.4508 20.1781 21.2999 20.6218C21.0212 21.4414 20.4095 22.0385 19.5391 22.3407C19.1249 22.4844 18.9667 22.4873 11.5 22.4873C3.98489 22.4873 3.87763 22.4853 3.45249 22.3377C2.59543 22.0403 1.92784 21.3694 1.66767 20.5441C1.55917 20.1999 1.54415 19.4201 1.54415 14.1405V8.12886H3.52755H5.51094V9.10653Z" fill="#E0000B"/>
</svg>
