<svg width="225" height="164" viewBox="0 0 225 164" fill="none" xmlns="http://www.w3.org/2000/svg">
<path d="M77.3484 102.924H61.7938L54.7663 114.961H42.636L83.1002 48.6257H95.611L87.7554 114.961H75.6251L77.3484 102.924ZM79.027 91.8496L80.8622 79.5223C81.5784 74.9807 83.1898 67.6648 84.1521 63.2126H83.8612C81.6679 67.6648 77.9751 74.9583 75.3565 79.5223L68.2171 91.8496H79.027Z" fill="#E0000B"/>
<path d="M115.619 87.9568L109.241 94.3106L101.699 114.961H90.2173L114.366 48.6257H125.847L115.955 75.8308L122.669 68.0675L140.842 48.648H154.293L125.937 77.5311L132.987 114.961H119.715L115.619 87.9568Z" fill="white"/>
<path d="M138.806 95.0708L148.474 68.5368C153.487 54.8 163.693 47.3052 176.114 47.3052C188.826 47.3052 193.303 54.8 188.938 68.3355H177.278C179.382 61.5118 177.614 58.581 171.929 58.581C167.095 58.581 163.022 61.7132 160.537 68.5368L150.869 95.0708C148.452 101.693 150.265 104.825 155.188 104.825C160.962 104.825 164.879 101.894 167.766 95.2498H179.427C174.055 108.696 163.872 116.101 151.07 116.101C138.738 116.101 133.837 108.718 138.806 95.0708Z" fill="white"/>
<path d="M54.811 48.6249L67.0085 48.5578L70.0523 48.5354H73.096C75.1327 48.5578 77.1693 48.5801 79.206 48.6249V48.6473C77.1693 48.7144 75.1327 48.7368 73.096 48.7591H70.0523L67.0085 48.7368L54.811 48.6696V48.6249Z" fill="#E0000B"/>
<path d="M51.9241 53.3675L64.1215 53.3003L67.1653 53.278H70.2091C72.2457 53.3003 74.2824 53.3227 76.319 53.3898V53.4122C74.2824 53.4793 72.2457 53.5017 70.2091 53.5241H67.1653L64.1215 53.5017L51.9241 53.3675Z" fill="#E0000B"/>
<path d="M49.0369 58.0883L61.2343 57.9988L64.2781 57.9764H67.3219C69.3585 57.9988 71.3952 58.0212 73.4318 58.0883V58.1107C71.3952 58.1778 69.3585 58.2002 67.3219 58.2225H64.2781L61.2343 58.2002L49.0369 58.0883Z" fill="#E0000B"/>
<path d="M46.1499 62.8314L58.3474 62.7643L61.3911 62.7419H64.4349C66.4716 62.7643 68.5082 62.7866 70.5448 62.8314V62.8537C68.5082 62.9209 66.4716 62.9432 64.4349 62.9656H61.3911L58.3474 62.9432L46.1499 62.8761V62.8314Z" fill="#E0000B"/>
<path d="M43.2627 67.574L55.4602 67.5069L58.5039 67.4845H61.5477C63.5843 67.5069 65.621 67.5292 67.6576 67.5964V67.6187C65.621 67.6859 63.5843 67.7082 61.5477 67.7306H58.5039L55.4602 67.7082L43.2627 67.574Z" fill="#E0000B"/>
<path d="M40.3757 72.3177L52.5732 72.2282L55.617 72.2058H58.6607C60.6974 72.2282 62.734 72.2506 64.7707 72.3177V72.34C62.734 72.4072 60.6974 72.4295 58.6607 72.4519H55.617L52.5732 72.4295L40.3757 72.3177Z" fill="#E0000B"/>
<path d="M37.4885 77.0603L49.686 76.9708L52.7298 76.9484H55.7735C57.8102 76.9708 59.8468 76.9932 61.8835 77.0603V77.0827C59.8468 77.1498 57.8102 77.1722 55.7735 77.1945H52.7298L49.686 77.1722L37.4885 77.0603Z" fill="#E0000B"/>
<path d="M34.6013 81.7816L46.7988 81.6921L49.8426 81.6697H52.8863C54.923 81.6921 56.9596 81.7145 58.9963 81.7816V81.804C56.9596 81.8711 54.923 81.8935 52.8863 81.8935H49.8426L46.7988 81.8711L34.6013 81.804V81.7816Z" fill="#E0000B"/>
<path d="M31.7144 86.5242L43.9118 86.4347L46.9556 86.4124H49.9994C52.036 86.4347 54.0726 86.4571 56.1093 86.5018V86.5242C54.0726 86.5913 52.036 86.6137 49.9994 86.6361H46.9556L43.9118 86.6137L31.7144 86.5466V86.5242Z" fill="#E0000B"/>
<path d="M28.8271 91.2673L41.0246 91.2002L44.0684 91.1778H47.1122C49.1488 91.2002 51.1854 91.2225 53.2221 91.2897V91.312C51.1854 91.3791 49.1488 91.4015 47.1122 91.4015H44.0684L41.0246 91.3791L28.8271 91.312V91.2673Z" fill="#E0000B"/>
<path d="M25.9399 96.0099L38.1374 95.9428L41.1812 95.9204H44.2249C46.2616 95.9428 48.2982 95.9652 50.3349 96.0323V96.0546C48.2982 96.1218 46.2616 96.1441 44.2249 96.1665H41.1812L38.1374 96.1441L25.9399 96.0099Z" fill="#E0000B"/>
<path d="M23.053 100.752L35.2504 100.685L38.2942 100.663H41.338C43.3746 100.685 45.4113 100.708 47.4479 100.752V100.775C45.4113 100.842 43.3746 100.864 41.338 100.887H38.2942L35.2504 100.864L23.053 100.775V100.752Z" fill="#E0000B"/>
<path d="M20.1658 105.474L32.3632 105.407L35.407 105.384H38.4508C40.4874 105.407 42.5241 105.429 44.5607 105.496V105.519C42.5241 105.586 40.4874 105.608 38.4508 105.608H35.407L32.3632 105.586L20.1658 105.519V105.474Z" fill="#E0000B"/>
<path d="M17.2788 110.216L29.4763 110.149L32.52 110.127H35.5638C37.6005 110.149 39.6371 110.172 41.6737 110.239V110.261C39.6371 110.328 37.6005 110.351 35.5638 110.373H32.52L29.4763 110.351L17.2788 110.216Z" fill="#E0000B"/>
<path d="M14.3916 114.959L26.5891 114.892L29.6328 114.87H32.6766C34.7132 114.892 36.7499 114.914 38.7865 114.959V114.981C36.7499 115.048 34.7132 115.071 32.6766 115.093H29.6328L26.5891 115.071L14.3916 114.981V114.959Z" fill="#E0000B"/>
<path d="M2.05975 113.057C0.358817 106.95 -0.312605 100.574 0.135009 94.2421C0.537861 87.9106 2.01499 81.691 4.23067 75.7623C6.44636 69.8335 9.44537 64.1956 12.9591 58.9157C16.4729 53.6357 20.5238 48.7137 24.9328 44.1721C29.3642 39.6304 34.1312 35.4244 39.1893 31.5763C41.7183 29.6522 44.3145 27.8177 46.9554 26.0726C49.6187 24.3275 52.3267 22.672 55.0796 21.1059C57.8324 19.5398 60.6523 18.0632 63.4947 16.6537C66.3594 15.2666 69.2465 13.9466 72.1784 12.7161C78.0421 10.2551 84.0625 8.17448 90.1501 6.38467C96.26 4.6396 102.482 3.18538 108.748 2.15624C111.882 1.64167 115.037 1.19421 118.215 0.858624C121.393 0.523034 124.572 0.276935 127.75 0.142699C130.928 0.00846343 134.128 -0.0362819 137.306 0.0308361C140.484 0.097954 143.685 0.276934 146.863 0.567778C153.219 1.14947 159.553 2.15624 165.752 3.72232C171.951 5.26604 178.039 7.34669 183.88 10.009C186.79 11.3514 189.655 12.828 192.43 14.4612C195.205 16.0944 197.868 17.9066 200.42 19.8754C205.5 23.8353 210.11 28.4665 213.848 33.7464C217.608 39.0264 220.45 44.9551 222.218 51.1971C223.964 57.4391 224.613 63.9942 224.166 70.4599C223.74 76.9256 222.218 83.2795 219.936 89.2977C218.794 92.318 217.451 95.2488 215.952 98.0902C214.452 100.931 212.774 103.683 210.983 106.346C207.38 111.648 203.262 116.592 198.763 121.156C194.265 125.72 189.408 129.882 184.283 133.685C181.709 135.587 179.091 137.399 176.405 139.122C173.719 140.844 170.967 142.478 168.191 143.999C165.394 145.543 162.574 146.997 159.687 148.362C156.8 149.726 153.89 150.979 150.936 152.165C145.027 154.536 138.985 156.55 132.852 158.228C126.72 159.883 120.498 161.248 114.209 162.188C111.076 162.658 107.92 163.06 104.742 163.351C101.587 163.642 98.4085 163.821 95.2305 163.933C92.0524 164.022 88.8744 164.022 85.6963 163.933C82.5183 163.821 79.3626 163.597 76.2069 163.284C69.8956 162.635 63.629 161.539 57.4743 159.951C51.342 158.362 45.3216 156.281 39.5698 153.597C33.8179 150.912 28.3347 147.668 23.3438 143.753C18.3529 139.838 13.8544 135.274 10.2287 130.105C6.53588 124.96 3.78306 119.165 2.05975 113.057ZM2.05975 113.057C3.78306 119.143 6.55826 124.937 10.2287 130.105C13.8767 135.296 18.3976 139.815 23.3885 143.708C25.8728 145.654 28.5137 147.422 31.2441 149.033C33.9746 150.644 36.7722 152.098 39.6593 153.418C45.4111 156.035 51.4315 158.071 57.5638 159.615C63.6961 161.159 69.9627 162.165 76.2517 162.725C79.4073 163.016 82.563 163.195 85.7187 163.262C88.8744 163.329 92.03 163.284 95.1857 163.15C98.3414 163.016 101.497 162.77 104.63 162.456C107.764 162.121 110.897 161.696 114.008 161.159C120.23 160.13 126.384 158.698 132.45 156.953C138.515 155.185 144.468 153.127 150.287 150.688C153.196 149.48 156.061 148.183 158.903 146.795C161.723 145.408 164.521 143.932 167.251 142.388C178.196 136.191 188.356 128.562 197.107 119.568C201.472 115.071 205.478 110.216 208.924 105.003C212.393 99.8129 215.325 94.2645 217.518 88.4252C219.689 82.6083 221.122 76.5006 221.525 70.3257C221.95 64.1509 221.301 57.9313 219.645 51.9801C217.966 46.029 215.258 40.3911 211.677 35.3349C208.119 30.2563 203.71 25.8041 198.831 21.956C193.929 18.1079 188.536 14.9086 182.873 12.2687C177.211 9.6287 171.258 7.57042 165.192 6.00433C159.127 4.43825 152.928 3.34199 146.661 2.71555C143.528 2.40234 140.395 2.17861 137.261 2.06675C134.128 1.95488 130.972 1.95488 127.817 2.06675C124.661 2.15624 121.528 2.35759 118.394 2.64844C115.261 2.93928 112.128 3.31961 109.017 3.81181C102.773 4.75146 96.6181 6.09382 90.5305 7.7494C84.443 9.42735 78.445 11.4185 72.5812 13.7676C69.6494 14.9534 66.7623 16.2063 63.8975 17.5486C61.0552 18.891 58.2352 20.3452 55.46 21.8665C52.6848 23.3879 49.9768 24.9987 47.3135 26.699C44.6502 28.3994 42.054 30.1892 39.5026 32.0908C34.4222 35.8495 29.6104 39.966 25.179 44.4853C20.7476 48.9822 16.6743 53.8594 13.1158 59.0946C11.3477 61.7122 9.69156 64.4193 8.21443 67.2159C6.73731 70.0125 5.41685 72.8986 4.29782 75.8518C2.05975 81.7581 0.560243 87.9777 0.157391 94.3092C-0.290223 100.574 0.358817 106.972 2.05975 113.057Z" fill="url(#paint0_linear_137_1979)"/>
<defs>
<linearGradient id="paint0_linear_137_1979" x1="-1.21591" y1="81.2291" x2="224.215" y2="82.8323" gradientUnits="userSpaceOnUse">
<stop stop-color="white"/>
<stop offset="1" stop-color="white"/>
</linearGradient>
</defs>
</svg>
