<svg width="68" height="49" viewBox="0 0 68 49" fill="none" xmlns="http://www.w3.org/2000/svg">
<path d="M23.1102 30.7516H18.4628L16.3631 34.3479H12.7388L24.8287 14.5283H28.5667L26.2196 34.3479H22.5953L23.1102 30.7516ZM23.6117 27.4428L24.16 23.7596C24.374 22.4027 24.8554 20.2168 25.143 18.8866H25.0561C24.4007 20.2168 23.2974 22.396 22.515 23.7596L20.3819 27.4428H23.6117Z" fill="#E0000B"/>
<path d="M34.5447 26.2797L32.6389 28.1781L30.3855 34.3479H26.9551L34.1702 14.5283H37.6006L34.645 22.6567L36.6511 20.3372L42.0809 14.535H46.0997L37.6274 23.1647L39.7338 34.3479H35.7684L34.5447 26.2797Z" fill="#575656"/>
<path d="M41.4723 28.4052L44.3611 20.4774C45.8589 16.3731 48.9082 14.1338 52.6194 14.1338C56.4176 14.1338 57.755 16.3731 56.451 20.4172H52.9671C53.5957 18.3785 53.0674 17.5028 51.369 17.5028C49.9246 17.5028 48.7076 18.4386 47.9653 20.4774L45.0766 28.4052C44.3544 30.3838 44.896 31.3197 46.3671 31.3197C48.0924 31.3197 49.2626 30.444 50.1252 28.4587H53.6091C52.0042 32.4761 48.9617 34.6887 45.1368 34.6887C41.4523 34.6887 39.9878 32.4828 41.4723 28.4052Z" fill="#575656"/>
<path d="M16.3765 14.5282L20.0208 14.5081L20.9302 14.5015H21.8397C22.4482 14.5081 23.0567 14.5148 23.6652 14.5282V14.5349C23.0567 14.5549 22.4482 14.5616 21.8397 14.5683H20.9302L20.0208 14.5616L16.3765 14.5416V14.5282V14.5282Z" fill="#E0000B"/>
<path d="M15.5137 15.9452L19.158 15.9251L20.0675 15.9185H20.9769C21.5854 15.9251 22.1939 15.9318 22.8024 15.9519V15.9586C22.1939 15.9786 21.5854 15.9853 20.9769 15.992H20.0675L19.158 15.9853L15.5137 15.9452Z" fill="#E0000B"/>
<path d="M14.6511 17.3557L18.2955 17.329L19.2049 17.3223H20.1143C20.7228 17.329 21.3313 17.3356 21.9399 17.3557V17.3624C21.3313 17.3824 20.7228 17.3891 20.1143 17.3958H19.2049L18.2955 17.3891L14.6511 17.3557Z" fill="#E0000B"/>
<path d="M13.7886 18.7728L17.4329 18.7528L18.3424 18.7461H19.2518C19.8603 18.7528 20.4688 18.7595 21.0773 18.7728V18.7795C20.4688 18.7996 19.8603 18.8063 19.2518 18.8129H18.3424L17.4329 18.8063L13.7886 18.7862V18.7728Z" fill="#E0000B"/>
<path d="M12.926 20.1898L16.5704 20.1698L17.4798 20.1631H18.3892C18.9977 20.1698 19.6062 20.1765 20.2148 20.1965V20.2032C19.6062 20.2232 18.9977 20.2299 18.3892 20.2366H17.4798L16.5704 20.2299L12.926 20.1898Z" fill="#E0000B"/>
<path d="M12.0632 21.6072L15.7076 21.5804L16.617 21.5737H17.5264C18.1349 21.5804 18.7435 21.5871 19.352 21.6072V21.6138C18.7435 21.6339 18.1349 21.6406 17.5264 21.6473H16.617L15.7076 21.6406L12.0632 21.6072Z" fill="#E0000B"/>
<path d="M11.2007 23.0241L14.845 22.9974L15.7545 22.9907H16.6639C17.2724 22.9974 17.8809 23.0041 18.4894 23.0241V23.0308C17.8809 23.0509 17.2724 23.0576 16.6639 23.0643H15.7545L14.845 23.0576L11.2007 23.0241Z" fill="#E0000B"/>
<path d="M10.3381 24.4348L13.9825 24.4081L14.8919 24.4014H15.8013C16.4098 24.4081 17.0184 24.4147 17.6269 24.4348V24.4415C17.0184 24.4615 16.4098 24.4682 15.8013 24.4682H14.8919L13.9825 24.4615L10.3381 24.4415V24.4348Z" fill="#E0000B"/>
<path d="M9.47559 25.8518L13.12 25.825L14.0294 25.8184H14.9388C15.5473 25.825 16.1558 25.8317 16.7643 25.8451V25.8518C16.1558 25.8718 15.5473 25.8785 14.9388 25.8852H14.0294L13.12 25.8785L9.47559 25.8585V25.8518Z" fill="#E0000B"/>
<path d="M8.61279 27.2689L12.2572 27.2489L13.1666 27.2422H14.076C14.6845 27.2489 15.293 27.2556 15.9015 27.2756V27.2823C15.293 27.3023 14.6845 27.309 14.076 27.309H13.1666L12.2572 27.3023L8.61279 27.2823V27.2689Z" fill="#E0000B"/>
<path d="M7.75024 28.6859L11.3946 28.6659L12.304 28.6592H13.2134C13.822 28.6659 14.4305 28.6725 15.039 28.6926V28.6993C14.4305 28.7193 13.822 28.726 13.2134 28.7327H12.304L11.3946 28.726L7.75024 28.6859Z" fill="#E0000B"/>
<path d="M6.8877 30.1029L10.5321 30.0829L11.4415 30.0762H12.3509C12.9594 30.0829 13.5679 30.0895 14.1764 30.1029V30.1096C13.5679 30.1296 12.9594 30.1363 12.3509 30.143H11.4415L10.5321 30.1363L6.8877 30.1096V30.1029Z" fill="#E0000B"/>
<path d="M6.02515 31.5136L9.66951 31.4935L10.5789 31.4868H11.4884C12.0969 31.4935 12.7054 31.5002 13.3139 31.5202V31.5269C12.7054 31.547 12.0969 31.5537 11.4884 31.5537H10.5789L9.66951 31.547L6.02515 31.5269V31.5136Z" fill="#E0000B"/>
<path d="M5.16235 32.9305L8.80672 32.9105L9.71614 32.9038H10.6256C11.2341 32.9105 11.8426 32.9172 12.4511 32.9372V32.9439C11.8426 32.964 11.2341 32.9707 10.6256 32.9773H9.71614L8.80672 32.9707L5.16235 32.9305Z" fill="#E0000B"/>
<path d="M4.2998 34.3475L7.94417 34.3275L8.85359 34.3208H9.76301C10.3715 34.3275 10.98 34.3342 11.5885 34.3475V34.3542C10.98 34.3743 10.3715 34.381 9.76301 34.3876H8.85359L7.94417 34.381L4.2998 34.3542V34.3475V34.3475Z" fill="#E0000B"/>
<path d="M0.615412 33.7794C0.107207 31.9545 -0.0934002 30.0494 0.040338 28.1577C0.160702 26.266 0.602039 24.4077 1.26404 22.6363C1.92605 20.8649 2.82209 19.1804 3.87194 17.6028C4.92178 16.0253 6.13211 14.5547 7.44943 13.1978C8.77344 11.8408 10.1978 10.5841 11.709 9.43437C12.4646 8.85951 13.2403 8.31138 14.0294 7.78998C14.8251 7.26859 15.6342 6.77394 16.4567 6.30602C17.2792 5.83811 18.1217 5.39693 18.971 4.97581C19.8269 4.56137 20.6895 4.16698 21.5655 3.79933C23.3175 3.06403 25.1162 2.44238 26.9351 1.90761C28.7606 1.38622 30.6196 0.951729 32.4919 0.644242C33.4281 0.490498 34.3709 0.356808 35.3205 0.25654C36.27 0.156272 37.2195 0.0827429 38.1691 0.0426358C39.1186 0.00252871 40.0749 -0.0108403 41.0244 0.00921322C41.9739 0.0292668 42.9302 0.0827424 43.8797 0.169641C45.7788 0.343438 47.6712 0.644242 49.5235 1.11216C51.3757 1.57339 53.1946 2.19505 54.9399 2.9905C55.8092 3.39158 56.6651 3.83275 57.4943 4.32072C58.3234 4.80869 59.1192 5.35014 59.8815 5.93838C61.3994 7.12153 62.7769 8.50523 63.8936 10.0828C65.017 11.6603 65.8663 13.4317 66.3945 15.2967C66.9161 17.1617 67.11 19.1202 66.9763 21.0521C66.8492 22.9839 66.3945 24.8823 65.7125 26.6804C65.3714 27.5828 64.9702 28.4585 64.5222 29.3074C64.0742 30.1564 63.5727 30.9786 63.0377 31.774C61.9611 33.3582 60.7307 34.8355 59.3866 36.1992C58.0426 37.5628 56.5915 38.8061 55.0602 39.9425C54.2912 40.5107 53.5089 41.0521 52.7064 41.5668C51.904 42.0815 51.0815 42.5695 50.2523 43.024C49.4165 43.4853 48.5739 43.9198 47.7113 44.3275C46.8487 44.7353 45.9794 45.1096 45.0967 45.4639C43.3314 46.1725 41.5259 46.7741 39.6937 47.2754C37.8615 47.7701 36.0025 48.1778 34.1235 48.4586C33.1873 48.5989 32.2445 48.7193 31.2949 48.8061C30.3521 48.893 29.4026 48.9465 28.453 48.9799C27.5035 49.0067 26.5539 49.0067 25.6044 48.9799C24.6548 48.9465 23.712 48.8797 22.7691 48.7861C20.8834 48.5922 19.0111 48.2647 17.1722 47.7901C15.34 47.3155 13.5412 46.6938 11.8227 45.8917C10.1041 45.0896 8.46584 44.1203 6.97466 42.9505C5.48348 41.7807 4.13941 40.4171 3.05613 38.873C1.95279 37.3355 1.1303 35.6042 0.615412 33.7794ZM0.615412 33.7794C1.1303 35.5976 1.95948 37.3288 3.05613 38.873C4.1461 40.4238 5.49685 41.774 6.98804 42.9371C7.73028 43.5187 8.51934 44.0468 9.33514 44.5281C10.1509 45.0093 10.9868 45.4438 11.8494 45.8382C13.568 46.6203 15.3667 47.2286 17.1989 47.6898C19.0312 48.1511 20.9035 48.4519 22.7825 48.619C23.7254 48.7059 24.6682 48.7594 25.6111 48.7794C26.5539 48.7995 27.4968 48.7861 28.4396 48.746C29.3825 48.7059 30.3253 48.6324 31.2615 48.5388C32.1977 48.4385 33.1338 48.3115 34.0633 48.1511C35.9223 47.8436 37.7612 47.4158 39.5733 46.8944C41.3855 46.3663 43.1642 45.7513 44.9028 45.0227C45.7721 44.6618 46.628 44.2741 47.4773 43.8596C48.3198 43.4452 49.1557 43.004 49.9715 42.5428C53.2414 40.6912 56.2772 38.4117 58.8918 35.7246C60.1958 34.381 61.3927 32.9304 62.4225 31.3729C63.459 29.8221 64.335 28.1644 64.9903 26.4197C65.6389 24.6817 66.0669 22.8569 66.1872 21.0119C66.3143 19.167 66.1204 17.3087 65.6255 15.5306C65.124 13.7526 64.3149 12.0681 63.245 10.5574C62.1818 9.03999 60.8645 7.70977 59.4067 6.56004C57.9423 5.4103 56.3307 4.45441 54.6389 3.66564C52.9472 2.87687 51.1684 2.26189 49.3563 1.79398C47.5441 1.32606 45.6919 0.998521 43.8195 0.811355C42.8834 0.717772 41.9472 0.650926 41.011 0.617504C40.0749 0.584081 39.132 0.584081 38.1892 0.617504C37.2463 0.644242 36.3101 0.704402 35.374 0.791301C34.4378 0.8782 33.5016 0.991836 32.5721 1.1389C30.7065 1.41964 28.8676 1.82072 27.0488 2.31537C25.2299 2.81671 23.4378 3.41163 21.6859 4.1135C20.8099 4.46778 19.9473 4.84212 19.0913 5.24319C18.2421 5.64426 17.3996 6.07875 16.5704 6.5333C15.7412 6.98784 14.9321 7.46913 14.1363 7.97715C13.3406 8.48517 12.5649 9.01994 11.8026 9.58812C10.2847 10.7111 8.847 11.9411 7.52299 13.2913C6.19898 14.6349 4.98196 16.0921 3.91874 17.6563C3.39048 18.4384 2.89565 19.2472 2.45431 20.0828C2.01298 20.9184 1.61845 21.7807 1.2841 22.663C0.615413 24.4277 0.16739 26.286 0.0470253 28.1777C-0.0867129 30.0494 0.107207 31.9612 0.615412 33.7794Z" fill="url(#paint0_linear_137_791)"/>
<defs>
<linearGradient id="paint0_linear_137_791" x1="-0.36329" y1="24.2697" x2="66.9909" y2="24.7487" gradientUnits="userSpaceOnUse">
<stop stop-color="white"/>
<stop offset="1" stop-color="#3B3B3B"/>
</linearGradient>
</defs>
</svg>
