<svg width="10" height="12" viewBox="0 0 10 12" fill="none" xmlns="http://www.w3.org/2000/svg">
<path d="M3.23634 0.0544825C2.8941 0.183408 2.64329 0.450635 2.54249 0.792873C2.5167 0.877261 2.50498 1.01322 2.50498 1.18668V1.45156H1.71502C0.86646 1.45156 0.796137 1.4586 0.571103 1.5758C0.184327 1.77271 -0.0196091 2.14073 0.00148775 2.60486C0.00852004 2.79708 0.0202405 2.84396 0.0952516 2.99867C0.210112 3.23308 0.376543 3.39951 0.610953 3.50968L0.793793 3.59641L0.798481 7.21804L0.805513 10.8397L0.871148 11.0225C1.03758 11.496 1.40795 11.85 1.86036 11.9648C1.97991 11.9953 2.38075 12 4.86783 12C7.41118 12 7.75342 11.9953 7.88234 11.9625C8.26209 11.864 8.60901 11.5804 8.78482 11.2241C8.96063 10.8631 8.95125 11.0999 8.95125 7.13366C8.95125 3.77222 8.95359 3.58235 8.99344 3.57063C9.12706 3.52609 9.30521 3.42061 9.40366 3.32919C10.0272 2.74551 9.76465 1.70238 8.93953 1.48673C8.82701 1.4586 8.64652 1.45156 8.02064 1.45156H7.24006V1.23122C7.24006 1.11167 7.22834 0.95696 7.21662 0.886637C7.16036 0.595969 6.95877 0.307645 6.70561 0.152935C6.44307 -0.00411987 6.47823 -0.00177574 4.85142 0.00056839H3.38402L3.23634 0.0544825ZM6.34696 0.626443C6.57668 0.75068 6.65169 0.898357 6.65404 1.22184V1.45156H4.87018H3.08632L3.0957 1.18668C3.10273 0.949927 3.10976 0.914766 3.16836 0.82569C3.24806 0.699109 3.38168 0.610034 3.52935 0.584249C3.5903 0.574872 4.22789 0.56784 4.94284 0.56784L6.24382 0.572528L6.34696 0.626443ZM8.8528 2.07509C9.18097 2.21105 9.26301 2.61658 9.01454 2.8674C8.95828 2.92366 8.87389 2.97757 8.81998 2.99398C8.69106 3.03149 1.06571 3.03617 0.927406 2.99632C0.87818 2.9846 0.800825 2.94007 0.753943 2.89787C0.484372 2.66112 0.547662 2.23449 0.875836 2.08213C0.964912 2.03993 1.12431 2.03759 4.86783 2.03759C8.33944 2.03759 8.77544 2.04228 8.8528 2.07509ZM8.36523 7.12897C8.36523 10.0825 8.36054 10.6686 8.33241 10.76C8.21755 11.1374 7.96204 11.3647 7.59871 11.4163C7.50025 11.4304 6.37978 11.4351 4.75297 11.4327L2.07133 11.4257L1.93771 11.3718C1.69861 11.2757 1.50405 11.06 1.41029 10.7904C1.37278 10.685 1.3681 10.413 1.36341 7.14069L1.35403 3.60813H4.8608H8.36523V7.12897Z" fill="#E0000B"/>
<path d="M3.07697 4.37229C2.91523 4.45199 2.92695 4.24102 2.92695 7.29538V10.0497L2.98789 10.1224C3.15432 10.3216 3.46374 10.2208 3.50125 9.95359C3.50828 9.89967 3.51297 8.6573 3.50828 7.19458C3.50125 4.59967 3.50125 4.53169 3.45437 4.46606C3.37467 4.34651 3.21058 4.30431 3.07697 4.37229Z" fill="#E0000B"/>
<path d="M4.73912 4.37229C4.69693 4.39339 4.64535 4.43793 4.62191 4.47309C4.58206 4.53169 4.57972 4.67937 4.57269 7.19458C4.568 8.6573 4.57269 9.89967 4.57972 9.95359C4.61723 10.2208 4.92665 10.3216 5.09308 10.1224L5.15402 10.0497V7.29538C5.15402 4.23399 5.16574 4.44965 4.99931 4.36995C4.90555 4.32541 4.83288 4.32541 4.73912 4.37229Z" fill="#E0000B"/>
<path d="M6.39604 4.37467C6.34916 4.39811 6.29524 4.45202 6.2718 4.49891C6.2343 4.57626 6.23195 4.74738 6.23664 7.31182C6.24367 9.81063 6.24602 10.0474 6.28352 10.0966C6.34681 10.188 6.41479 10.2232 6.52496 10.2232C6.65858 10.2232 6.76172 10.1529 6.79453 10.0357C6.81329 9.97472 6.81798 9.11209 6.81329 7.22509L6.80626 4.49891L6.73593 4.43093C6.64451 4.33951 6.50856 4.31607 6.39604 4.37467Z" fill="#E0000B"/>
</svg>
