<svg width="53" height="69" viewBox="0 0 53 69" fill="none" xmlns="http://www.w3.org/2000/svg">
<path d="M23.4849 0.297867C21.4492 1.06632 19.9527 2.77848 19.4809 4.86813L19.3326 5.56917L17.9844 5.65006C15.9217 5.75791 14.641 6.33762 13.3737 7.71274C12.8345 8.29245 11.9986 9.80238 11.9986 10.1799C11.9986 10.2877 10.8796 10.3416 7.79235 10.3821L3.57262 10.4225L2.72328 10.8135C1.65823 11.3123 0.674079 12.3504 0.283113 13.3885C0 14.1435 0 14.1839 0 39.745V65.3465L0.283113 66.1284C0.687561 67.1935 1.80653 68.3124 2.87158 68.7169L3.65351 69H26.2891H48.9247L49.7066 68.7169C50.7716 68.3124 51.8906 67.1935 52.295 66.1284L52.5782 65.3465V39.745C52.5782 14.1839 52.5782 14.1435 52.295 13.3885C51.9041 12.3504 50.9199 11.2988 49.8549 10.8135L49.0055 10.4225L44.8937 10.3821L40.7683 10.3282L40.3099 9.30357C39.5415 7.60489 38.0046 6.29717 36.2115 5.82532C35.834 5.71746 35.0251 5.63657 34.4185 5.63657H33.313L33.1647 4.89509C32.7872 3.04811 31.439 1.3764 29.673 0.527054L28.6484 0.0417175L26.4913 0.0147552C24.5095 -0.0256882 24.2668 0.00127411 23.4849 0.297867ZM28.4596 3.45256C28.9584 3.70871 29.3224 4.03226 29.6325 4.47716C30.4414 5.6905 30.6032 5.63657 26.2891 5.63657H22.5142L22.6491 5.29954C23.0535 4.24797 23.4714 3.77612 24.4017 3.35818C24.887 3.14249 25.2914 3.07507 26.37 3.07507C27.6103 3.07507 27.8125 3.11552 28.4596 3.45256ZM35.6183 8.95304C36.3598 9.19571 37.1552 9.92372 37.4923 10.6787C37.708 11.164 37.7484 11.5954 37.7484 13.9547V16.6915H26.3565H14.9646V13.9547C14.9646 11.2719 14.978 11.2045 15.3151 10.5169C15.6926 9.74846 16.2992 9.20919 17.0812 8.92608C17.4856 8.79126 19.373 8.75082 26.3026 8.73734C33.8522 8.73734 35.0926 8.7643 35.6183 8.95304ZM11.8638 14.2648V14.9389H9.98985C8.95177 14.9389 7.95413 14.9928 7.76539 15.0737C7.57665 15.1411 7.29353 15.3972 7.14524 15.6399C6.87561 16.0848 6.87561 16.287 6.90257 38.7069L6.94301 61.3425L7.38791 61.7334L7.81932 62.1244H26.2891H44.7588L45.1903 61.7334L45.6351 61.3425L45.6756 38.9091C45.7026 22.9065 45.6756 16.341 45.5677 15.9769C45.3116 15.1006 44.8802 14.9389 42.7096 14.9389H40.8492V14.2648V13.5907H44.624C47.9135 13.5907 48.4528 13.6177 48.7494 13.8064C49.5313 14.3187 49.4774 12.62 49.4774 39.745C49.4774 61.7874 49.4504 64.7398 49.2752 65.0903C48.8303 65.9532 50.4481 65.8992 26.2891 65.8992C2.13009 65.8992 3.74788 65.9532 3.30299 65.0903C3.12773 64.7398 3.10076 61.7874 3.10076 39.745C3.10076 21.9358 3.14121 14.6962 3.24906 14.494C3.32995 14.3322 3.55914 14.0626 3.74788 13.9008C4.11188 13.5907 4.16581 13.5907 7.99458 13.5907H11.8638V14.2648ZM11.8638 18.498C11.8638 18.8216 11.9851 19.0777 12.2548 19.3743L12.6457 19.7922H26.3295H40.0133L40.4313 19.3743C40.7413 19.0777 40.8492 18.835 40.8492 18.498V18.0396H41.7255H42.6018V38.5316V59.0236H26.2891H9.97637V38.5316V18.0396H10.9201H11.8638V18.498Z" fill="#4C4C4C"/>
<path d="M31.1424 32.5458C30.9537 32.6671 29.4302 34.1366 27.745 35.8083L24.6847 38.8552L23.2692 37.3587C22.4872 36.5363 21.6244 35.7679 21.3548 35.6331C20.3167 35.1477 19.1438 35.8488 19.1438 36.9812C19.1438 37.7362 19.4674 38.1541 21.921 40.5673C24.0241 42.6165 24.2938 42.7918 25.1296 42.5626C25.4262 42.4817 26.707 41.2818 29.4977 38.4912L33.4343 34.541V33.9074C33.4343 33.4086 33.3534 33.1929 33.0568 32.8559C32.5849 32.3301 31.6682 32.1818 31.1424 32.5458Z" fill="#E0000B"/>
<path d="M14.9377 53.3748C14.3849 53.7793 14.2097 54.5882 14.5197 55.2218C15.0185 56.2464 14.3849 56.1925 26.4509 56.1655C37.1149 56.1251 37.1957 56.1251 37.5732 55.842C38.0046 55.5184 38.2878 54.7904 38.1934 54.2646C38.1529 54.0489 37.9372 53.7119 37.7215 53.4962L37.3171 53.0917H26.3161C15.45 53.1052 15.3017 53.1052 14.9377 53.3748Z" fill="#E0000B"/>
</svg>
