<svg width="55" height="69" viewBox="0 0 55 69" fill="none" xmlns="http://www.w3.org/2000/svg">
<path d="M25.3304 0.689606C24.6969 1.09402 18.8327 4.82819 12.2946 8.99374C1.94137 15.6128 0.391083 16.6373 0.188872 17.0552C-0.0133392 17.4866 -0.0268199 18.3089 0.027103 26.2491C0.081026 35.6317 0.121468 36.2248 0.876389 39.5546C2.68281 47.6026 7.19885 54.8282 13.6022 59.87C14.8964 60.8811 25.6809 68.5651 26.2337 68.8482C26.692 69.0909 27.5008 69.0369 28.0131 68.7269C28.768 68.2685 39.0673 60.9485 40.2267 60.0453C42.3701 58.3737 44.7562 56.0011 46.4278 53.8441C50.2428 48.9641 52.7233 43.1809 53.6265 37.128C53.9905 34.7419 54.0444 33.0838 54.0444 25.4268V17.2844L53.7478 16.853C53.5321 16.5699 49.3396 13.8064 40.6311 8.2523C25.7618 -1.23814 27.2312 -0.510178 25.3304 0.689606ZM39.0673 11.1776L50.8225 18.6594L50.7686 26.8153C50.7147 35.726 50.7012 35.9957 49.8519 39.4602C48.4499 45.203 45.6864 50.2043 41.5478 54.4643C39.6065 56.4594 38.5011 57.3357 32.4078 61.663L27.0425 65.4645L21.9063 61.8247C14.7481 56.7425 13.5887 55.7989 11.2026 53.0353C7.5898 48.8293 5.05542 43.6932 3.97696 38.3683C3.34336 35.2677 3.28944 34.3645 3.28944 26.276V18.6729L15.1525 11.0967C21.6772 6.93119 27.0829 3.561 27.1773 3.61492C27.2582 3.65536 32.61 7.06599 39.0673 11.1776Z" fill="#4C4C4C"/>
<path d="M35.2927 27.5837C34.9692 27.8668 32.3404 30.3338 29.442 33.0569L24.1846 38.0313L21.3266 35.133C19.2506 33.03 18.3474 32.2076 18.0508 32.1402C16.8241 31.8706 15.8265 32.8817 16.0961 34.1084C16.1635 34.4185 17.0937 35.47 19.5742 38.0313C21.4345 39.9591 23.1196 41.6172 23.3218 41.725C23.7801 41.9542 24.4811 41.9677 24.899 41.7385C25.0608 41.6442 28.0535 38.8806 31.5316 35.5913C38.2854 29.2284 38.2719 29.2419 37.9888 28.2578C37.9214 28.0286 37.8271 27.759 37.7597 27.6781C37.5305 27.3411 36.9643 27.085 36.452 27.085C36.0072 27.085 35.778 27.1793 35.2927 27.5837Z" fill="#E0000B"/>
</svg>
