<svg width="69" height="69" viewBox="0 0 69 69" fill="none" xmlns="http://www.w3.org/2000/svg">
<path d="M30.2414 2.43925L26.5488 4.87852L22.8293 4.66289C17.9104 4.37988 17.56 4.37988 17.1152 4.73027C16.8861 4.90546 16.0641 6.40137 14.7973 8.90801L12.8432 12.8027L8.96191 14.7568C6.42832 16.0236 4.97285 16.8187 4.78418 17.0613C4.43379 17.5061 4.42031 18.0047 4.7168 22.9102L4.91895 26.5084L2.53359 30.1201C1.22637 32.1146 0.107813 33.907 0.0404297 34.1227C-0.0134766 34.3248 -0.0134766 34.6617 0.0404297 34.8773C0.107813 35.0795 1.22637 36.8719 2.52012 38.8529L4.90547 42.4646L4.66289 46.7367C4.51465 49.176 4.46074 51.184 4.52813 51.4266C4.58203 51.6557 4.7707 51.9656 4.93242 52.1139C5.10762 52.2756 6.92695 53.2459 9.00234 54.2701L12.7623 56.1434L14.7973 60.1055C16.1854 62.8008 16.9535 64.1484 17.2096 64.3371C17.5734 64.6066 17.5869 64.6066 22.0611 64.3641L26.5488 64.1215L30.2549 66.5607C33.5297 68.7305 34.0148 69 34.5 69C34.9986 69 35.4703 68.7305 38.7721 66.5607L42.4916 64.135L46.9119 64.3641C50.7662 64.5662 51.3861 64.5797 51.7365 64.4045C52.0734 64.2428 52.4508 63.6094 54.1623 60.2402L56.1838 56.2646L60.1594 54.2297C63.4207 52.5586 64.1754 52.1139 64.391 51.7635C64.6201 51.3592 64.6336 51.2109 64.418 47.5318C64.2967 45.443 64.2023 43.4215 64.2023 43.0441C64.2023 42.3973 64.2832 42.2355 66.5607 38.799C69.6738 34.0957 69.6604 34.9178 66.6146 30.2818C65.3479 28.3547 64.2832 26.6971 64.2428 26.5893C64.2023 26.4949 64.2697 24.5273 64.4045 22.2363C64.5393 19.9453 64.5932 17.8564 64.5527 17.6139C64.4988 17.3578 64.3641 17.0613 64.2293 16.94C64.108 16.8322 62.2617 15.8484 60.1324 14.7568L56.2646 12.7893L54.2701 8.86758C52.9225 6.23965 52.1408 4.85156 51.8982 4.66289C51.5344 4.39336 51.5209 4.39336 47.0063 4.63593L42.4781 4.86504L39.0146 2.5875C37.1145 1.33418 35.4299 0.229103 35.2682 0.148239C35.1064 0.0673828 34.7426 0 34.4596 0C34.0283 0 33.4084 0.363869 30.2414 2.43925ZM38.1926 5.68711C39.9311 6.83261 41.5078 7.80293 41.6965 7.84336C41.8852 7.89727 43.8527 7.82988 46.0764 7.69512L50.1193 7.47949L51.9521 11.0912C52.9629 13.0857 53.9062 14.8242 54.041 14.959C54.1893 15.0938 55.9143 16.0371 57.9088 17.0479L61.507 18.8941V19.5141C61.507 19.8645 61.4127 21.7242 61.3049 23.6648C61.1701 25.9289 61.1432 27.3035 61.224 27.5191C61.2914 27.6943 62.3156 29.3115 63.515 31.1039C64.7145 32.8963 65.6848 34.4191 65.6848 34.5C65.6848 34.5674 64.7145 36.0902 63.515 37.8961C62.3156 39.702 61.2914 41.3057 61.224 41.4809C61.1432 41.683 61.1836 43.3406 61.3318 45.9012C61.4666 48.4213 61.507 50.052 61.4262 50.1193C61.3588 50.1867 59.6742 51.0627 57.6932 52.0869C54.7822 53.5828 54.0141 54.0275 53.8119 54.3645C53.6772 54.5936 52.7877 56.2916 51.8578 58.1514C50.9145 59.9977 50.1463 61.5205 50.1328 61.534C50.1193 61.534 48.3 61.4396 46.0764 61.3184C43.691 61.1836 41.8717 61.1432 41.6291 61.2105C41.4135 61.2645 39.7154 62.3156 37.8691 63.5285L34.5135 65.7387L31.2656 63.5689C29.4732 62.383 27.8291 61.3318 27.6 61.2375C27.2631 61.1027 26.468 61.1027 23.0584 61.2914L18.9211 61.5205L16.9939 57.7471L15.0803 53.9736L11.3473 52.0869C9.29883 51.0492 7.5873 50.1732 7.56035 50.1328C7.51992 50.0924 7.57383 48.6639 7.68164 46.9658C7.77598 45.2543 7.85684 43.3137 7.87031 42.6533V41.4404L5.5793 37.9635L3.30176 34.5L5.5793 31.0365L7.87031 27.573V26.3602C7.85684 25.6863 7.77598 23.7322 7.68164 22.0342C7.57383 20.3227 7.51992 18.9076 7.56035 18.8672C7.5873 18.8268 9.29883 17.9508 11.3473 16.9131L15.0803 15.0264L16.9939 11.2529L18.8941 7.47949L23.0584 7.70859C27.0744 7.92422 27.2227 7.92422 27.7482 7.68164C28.0447 7.54688 29.6889 6.4957 31.3869 5.35019C34.1766 3.47695 34.5135 3.2748 34.7561 3.43652C34.9043 3.53086 36.4541 4.5416 38.1926 5.68711Z" fill="#4C4C4C"/>
<path d="M32.3976 13.0857C23.557 13.9347 16.091 20.2552 13.746 28.8532C11.3203 37.7882 14.905 47.3296 22.6271 52.4507C28.166 56.1163 35.1199 57.0327 41.4269 54.89C44.7017 53.7849 47.424 52.0733 49.8767 49.5802C53.1111 46.2919 55.146 42.1816 55.8603 37.5321C56.0624 36.1441 56.0624 32.8558 55.8603 31.4677C54.7822 24.4329 50.5505 18.5167 44.2839 15.3228C41.7773 14.0425 39.2976 13.3282 36.4271 13.0722C34.7021 12.9239 34.0552 12.9239 32.3976 13.0857ZM38.2599 16.3739C45.5238 17.8698 51.1165 23.503 52.7068 30.9017C53.0572 32.4784 53.0437 36.5349 52.7068 38.1386C51.3456 44.486 46.8984 49.6745 40.9148 51.8712C30.4974 55.6985 19.0693 49.5128 16.5087 38.6776C14.5546 30.4165 18.638 21.778 26.3331 17.9237C29.8775 16.1448 34.3517 15.5653 38.2599 16.3739Z" fill="#E0000B"/>
<path d="M42.4378 27.8831C42.0739 28.1122 40.4163 29.662 33.9206 35.8208L31.8721 37.7614L29.2846 35.12C27.4653 33.2468 26.5893 32.4517 26.2794 32.3708C25.4842 32.1552 24.5544 32.6673 24.4061 33.395C24.2444 34.244 24.4061 34.4731 27.5866 37.721C29.2846 39.4729 30.8479 41.0093 31.0366 41.1306C31.4948 41.4405 32.0878 41.4405 32.5999 41.1306C33.2467 40.7263 44.5132 30.0528 44.6075 29.7294C44.8635 28.9208 44.5805 28.1526 43.9202 27.8292C43.3407 27.5597 42.9364 27.5731 42.4378 27.8831Z" fill="#E0000B"/>
</svg>
