<svg width="69" height="69" viewBox="0 0 69 69" fill="none" xmlns="http://www.w3.org/2000/svg">
<path d="M8.12515 0.220016C7.5994 0.637924 7.53199 0.961472 7.53199 3.13191V5.23494H5.60421C3.0563 5.23494 2.4901 5.39671 1.45207 6.43475C0.872386 7.01443 0.629728 7.37842 0.467956 7.90418C0.292703 8.51082 0.25226 11.5575 0.103969 30.6196C-0.0443213 51.2051 -0.0443213 52.688 0.171374 53.3351C0.535361 54.4001 1.19593 55.1685 2.207 55.6673L3.08327 56.0987L17.1305 56.2065C24.8685 56.2605 31.1911 56.3144 31.2046 56.3144C31.2181 56.3279 31.3933 56.7323 31.609 57.2311C32.5257 59.415 34.0086 61.6124 35.7342 63.3245C37.1093 64.6996 38.0395 65.4275 39.6437 66.3712C42.6769 68.1642 45.7641 68.9865 49.4713 69C52.7337 69 55.1333 68.4473 58.0318 67.0453C63.7881 64.2547 67.6572 59.0106 68.7491 52.5532C69.0053 51.0703 68.9648 47.754 68.6817 46.2845C67.8864 42.0515 66.1608 38.7622 63.2219 35.8368C61.6042 34.2325 60.1348 33.1541 58.3823 32.2778L57.3981 31.779L57.4386 20.091L57.479 8.40297L57.0746 7.675C56.8589 7.28405 56.441 6.75829 56.1579 6.50216C55.3221 5.80114 54.6345 5.62589 52.3967 5.54501L50.4015 5.46412V3.38805C50.4015 1.09628 50.2802 0.664886 49.6061 0.395271C49.0399 0.166092 39.8729 0.13913 39.4684 0.354828C38.8214 0.691849 38.7539 0.974953 38.7 3.33412L38.6461 5.54501L36.934 5.46412C36.0038 5.41019 31.609 5.36975 27.1873 5.36975H19.1256V3.14539V0.921028L18.7347 0.489639L18.3437 0.0447617L13.3693 0.0177994C8.81268 -0.022644 8.38129 -0.0091629 8.12515 0.220016ZM16.1598 7.18969V11.4362H13.2344H10.3226L10.4034 9.99373C10.4574 9.21183 10.4978 7.29753 10.4978 5.74722V2.94318H13.3288H16.1598V7.18969ZM47.1391 3.15887L47.4357 3.23975V7.47279V11.7058H46.6673C46.2359 11.7058 44.9282 11.6654 43.7689 11.6115L41.6389 11.5306V7.29753V3.07799H44.2407C45.6562 3.07799 46.9639 3.11843 47.1391 3.15887ZM7.49155 10.7352C7.46459 13.4314 7.51851 13.7414 8.11167 14.1324C8.57003 14.4425 17.5349 14.5099 18.2359 14.2133C19.0178 13.8897 19.1256 13.4583 19.1256 10.6947V8.33557H26.8502C31.1102 8.33557 35.505 8.37601 36.624 8.42994L38.6596 8.51082L38.7 11.1127L38.7405 13.728L39.1179 14.0919C39.455 14.4425 39.5898 14.4829 40.8705 14.5503C43.4453 14.7121 49.0939 14.6851 49.4444 14.4964C50.1858 14.1189 50.2532 13.8628 50.3476 11.0587L50.442 8.47038H51.9653C53.5426 8.47038 54.0953 8.59171 54.3919 8.98266C54.5267 9.15791 54.5671 10.3173 54.5806 14.1863V19.1608L44.7125 19.0799C39.2797 19.026 27.6726 18.9451 18.9369 18.8912L3.04282 18.8103L3.13719 17.5161C3.17763 16.8016 3.21808 14.5638 3.21808 12.5416V8.86133L3.5551 8.53778C3.86516 8.21424 3.94605 8.20076 5.69858 8.20076H7.53199L7.49155 10.7352ZM9.12275 21.8166H13.3288V25.8608V29.9051H8.20604H3.08327V25.78V21.6413L3.99997 21.7222C4.49877 21.7761 6.80402 21.8166 9.12275 21.8166ZM25.9066 21.9109L27.349 21.9918V26.0226V30.04H21.8218H16.2946V25.9283V21.8166H20.3794C22.6307 21.8166 25.1247 21.857 25.9066 21.9109ZM41.3288 23.7983C41.2749 24.8093 41.2344 26.6562 41.2344 27.9234V30.2017L35.7881 30.1478C32.7954 30.1343 30.3149 30.0804 30.2879 30.04C30.2609 29.9995 30.2609 28.1661 30.2879 25.9552L30.3418 21.9514H35.8825H41.4097L41.3288 23.7983ZM50.3072 22.0862H54.4458V26.1305V30.1748H49.323H44.2003V26.481C44.2003 24.4588 44.2407 22.5984 44.2946 22.3558L44.3755 21.9109L45.2653 22.0053C45.7506 22.0457 48.0154 22.0862 50.3072 22.0862ZM13.2884 35.7963C13.2344 37.4141 13.194 39.2744 13.194 39.935V41.1213L8.13863 41.0674C5.36155 41.0404 3.06979 40.9865 3.02934 40.9461C2.9889 40.9056 2.9889 39.0722 3.04282 36.8748L3.12371 32.871H8.24648H13.3693L13.2884 35.7963ZM27.2142 37.131V41.2696L26.1762 41.1752C25.61 41.1348 23.1295 41.0944 20.649 41.0944H16.1598V38.7622C16.1598 37.4949 16.2003 35.675 16.2542 34.7179L16.3351 33.0058H21.7814H27.2142V37.131ZM37.2441 33.1271L38.9696 33.208L38.3226 33.6663C36.0038 35.2975 33.739 37.8185 32.4853 40.1507L31.9191 41.2292H31.0428H30.18V37.1175V33.0058L32.8493 33.0193C34.3052 33.0327 36.2869 33.0732 37.2441 33.1271ZM52.208 33.3563C58.3283 34.4213 63.195 38.6139 65.1632 44.5051C66.5517 48.6707 66.2282 52.9981 64.2195 57.0019C61.8469 61.7068 57.2499 65.0636 52.0327 65.9129C50.7116 66.1151 47.948 66.0746 46.6403 65.832C40.7761 64.6996 35.9769 60.6688 34.0356 55.2494C33.2807 53.1194 33.0919 51.96 33.0919 49.52C33.1054 47.2282 33.2537 46.298 33.9008 44.3568C35.3972 39.8137 39.091 35.9581 43.5801 34.2325C44.4968 33.882 46.3707 33.3967 47.4357 33.2349C48.3389 33.0867 51.116 33.1675 52.208 33.3563ZM11.8189 44.0602H13.194V48.6572V53.2677L8.38129 53.1733L3.5551 53.079L3.25852 52.7419C2.94846 52.4049 2.94846 52.3779 2.94846 48.1449V43.8849L6.69617 43.9658C8.74528 44.0197 11.0505 44.0602 11.8189 44.0602ZM27.2142 48.2258C27.2142 50.5176 27.1738 52.5802 27.1333 52.8093L27.0525 53.2272H21.6061H16.1598V48.6437V44.0602H21.687H27.2142V48.2258ZM30.7058 44.3568C30.7058 44.4511 30.598 45.0173 30.4497 45.6105L30.207 46.689L30.1935 45.4352C30.18 44.2759 30.1935 44.195 30.4497 44.195C30.598 44.195 30.7193 44.2759 30.7058 44.3568ZM30.3014 52.9846C30.3149 53.2003 30.2609 53.3621 30.18 53.3621C30.0992 53.3621 30.0587 52.9576 30.0587 52.3779C30.0722 51.4612 30.0857 51.4343 30.1935 52.014C30.2474 52.351 30.3014 52.7824 30.3014 52.9846Z" fill="#4C4C4C"/>
<path d="M48.4064 42.6448C47.611 42.9953 47.5706 43.2784 47.5706 47.9159V52.0545L49.8084 54.3058C51.2778 55.8022 52.1676 56.5976 52.3967 56.6381C52.9495 56.7459 53.4617 56.5976 53.8392 56.2201C54.1088 55.9505 54.1762 55.7483 54.1762 55.2225V54.5485L52.3563 52.7016L50.5364 50.8547V47.2418C50.5364 43.2245 50.4959 42.9818 49.6601 42.6313C49.0939 42.4021 48.9726 42.4021 48.4064 42.6448Z" fill="#E0000B"/>
</svg>
