<svg width="74" height="69" viewBox="0 0 74 69" fill="none" xmlns="http://www.w3.org/2000/svg">
<path d="M10.5612 0.136292C8.87039 0.379883 7.38016 1.39725 6.63504 2.78719C6.39144 3.24573 4.8009 7.04296 3.09573 11.2128L0.0006187 18.7786V37.2202C0.0006187 57.5677 -0.0566981 56.3067 0.932017 57.7826C1.54817 58.714 2.4939 59.4735 3.56859 59.9034L4.37102 60.2329L20.6633 60.2759L36.9556 60.3046L37.5574 61.064C42.1715 66.7241 48.4333 69.5326 55.0964 68.9164C58.736 68.5725 61.5875 67.5838 64.5107 65.6637C69.1533 62.5973 72.4347 57.3814 73.2372 51.836C73.4521 50.2885 73.3231 46.305 73.0079 44.9294C72.1911 41.2611 70.3283 37.8221 67.7347 35.1855C66.0296 33.4373 64.4104 32.2623 62.2753 31.202L60.5415 30.3566L60.4698 24.5103L60.3982 18.6783L57.2744 11.0121C55.5549 6.79936 53.993 3.0881 53.8068 2.77287C52.99 1.3686 51.4568 0.365555 49.7803 0.121964C48.5623 -0.0499878 11.7649 -0.0356598 10.5612 0.136292ZM23.2712 3.51798C23.2283 3.74725 22.6981 6.98564 22.0819 10.7256L20.9786 17.5319L12.424 17.5749C7.72406 17.5892 3.8695 17.5606 3.8695 17.5033C3.8695 17.188 9.11399 4.54968 9.4149 4.1628C10.2173 3.0881 9.94508 3.13109 17.0094 3.13109H23.3572L23.2712 3.51798ZM33.6742 3.15975C33.6742 3.18841 34.1901 6.4268 34.7919 10.3673L35.9096 17.5319L30.0346 17.5749C26.8106 17.5892 24.1453 17.5749 24.1167 17.5463C24.0737 17.5176 24.5752 14.3079 25.2057 10.4103C25.8505 6.52711 26.3663 3.30304 26.3663 3.2314C26.3663 3.14542 33.6742 3.07378 33.6742 3.15975ZM50.0239 3.3317C50.5254 3.54664 51.0126 3.99084 51.2705 4.49236C51.3851 4.72163 56.2141 16.5002 56.558 17.403C56.6153 17.5749 55.1967 17.6036 47.8028 17.6036C42.7733 17.6036 38.976 17.5463 38.976 17.4746C38.976 17.403 38.4888 14.2362 37.9013 10.439C37.3139 6.64174 36.8267 3.43201 36.8267 3.3317C36.8267 3.03078 49.3217 3.03078 50.0239 3.3317ZM20.778 27.7916V34.8273L21.1935 35.2428C21.5947 35.6297 21.91 35.73 22.5691 35.6584C22.7267 35.644 26.3663 34.2541 30.6508 32.5633C36.0959 30.4425 38.5605 29.3965 38.8184 29.1386L39.191 28.7804L39.234 24.7682L39.277 20.756H48.3617H57.4607V25.1407V29.5255L57.1168 29.4395C56.9305 29.3965 56.0564 29.2962 55.1537 29.2102C51.2705 28.8807 47.0864 29.7691 43.762 31.6605C40.151 33.7239 37.3712 36.6757 35.6087 40.3154C34.6916 42.2211 34.3477 43.1955 33.9752 45.0583C33.23 48.7409 33.5883 53.0397 34.8922 56.2781C35.0928 56.7509 35.2504 57.1808 35.2504 57.2238C35.2504 57.3671 5.53169 57.2955 4.97285 57.1378C4.29938 56.9516 3.45396 56.2351 3.21036 55.6189C3.03841 55.2321 3.00975 52.0796 3.00975 37.951V20.756H11.8939H20.778V27.7916ZM36.2248 23.9228L36.1818 27.1038L30.0346 29.5111C26.6529 30.8438 23.8587 31.9328 23.8301 31.9328C23.8014 31.9328 23.7871 29.4108 23.7871 26.3444V20.756H30.0203H36.2535L36.2248 23.9228ZM56.4003 32.4343C63.393 33.6666 68.9957 39.3553 70.142 46.4053C71.2311 53.1543 68.0357 59.9607 62.0747 63.5716C60.957 64.2451 58.8363 65.1192 57.4607 65.4774C55.7412 65.9073 52.4312 66.0076 50.597 65.6924C40.7385 63.9729 34.4767 53.9281 37.2852 44.3275C38.7754 39.1833 43.0742 34.7126 48.0464 33.0791C50.6543 32.2337 53.7924 31.9901 56.4003 32.4343Z" fill="#4C4C4C"/>
<path d="M7.17952 42.4504C6.47739 42.8373 6.46306 42.9949 6.44873 48.1964C6.44873 52.7817 6.46306 53.097 6.73531 53.5269C6.92159 53.8421 7.17952 54.0284 7.58074 54.143C7.98195 54.2433 10.7905 54.2863 16.2929 54.2576C23.8587 54.2147 24.4605 54.2003 24.8044 53.9567C25.4922 53.4982 25.5209 53.2546 25.4779 47.9958L25.4349 43.0809L24.9621 42.6653L24.5035 42.2498H16.0063C9.24292 42.2641 7.45177 42.2928 7.17952 42.4504ZM22.4974 48.268V51.2772H15.9776H9.45786V48.268V45.2589H15.9776H22.4974V48.268Z" fill="#E0000B"/>
<path d="M55.1392 47.222L52.0297 50.3315L50.3819 48.7266C48.7913 47.1647 48.7197 47.1217 48.1035 47.1217C47.2295 47.1217 46.5703 47.7379 46.5703 48.5403C46.5703 49.2711 46.9715 49.8013 49.3358 52.094L51.2703 53.9998H51.9581H52.6459L56.3572 50.3028C58.4922 48.1964 60.1544 46.4196 60.2834 46.133C60.7132 45.1157 60.0398 44.1126 58.9221 44.1126H58.2629L55.1392 47.222Z" fill="#E0000B"/>
</svg>
